<svg xmlns="http://www.w3.org/2000/svg" viewBox="0 0 848 848"><defs><style>.cls-1{fill:#ffd600;}</style></defs><g id="Layer_2" data-name="Layer 2"><path class="cls-1" d="M449.16,157.47q-28.5-16-71-16H269.66v161h108.5q42,0,71-16.5,37-20.5,37-64.25T449.16,157.47Zm0,0q-28.5-16-71-16H269.66v161h108.5q42,0,71-16.5,37-20.5,37-64.25T449.16,157.47Zm441.34-59h-780a12,12,0,0,0-5.3,1.24,10.55,10.55,0,0,1,.94,1.66L412.71,902.5H890.5a12,12,0,0,0,12-12v-780A12,12,0,0,0,890.5,98.5Zm-398.34,350a2.85,2.85,0,0,1,1,2q0,3.5-3.5,3.5a3.37,3.37,0,0,1-3-1.5l-99.5-144a82.26,82.26,0,0,1-9,.5H269.66v141.5q0,3.5-3.25,3.5t-3.25-3.5v-312q0-3.5,3.5-3.5h111.5q44,0,74,16.5,41,22.5,41,70.25t-41,70.25q-23.51,13.5-57,16Zm345.5,250.07c2.32,0,3.5,1.17,3.5,3.5s-1.18,3.5-3.5,3.5H640.16V855h220c2.32,0,3.5,1.08,3.5,3.25s-1.18,3.25-3.5,3.25h-223c-2.34,0-3.5-1.17-3.5-3.5V546c0-2.33,1.16-3.5,3.5-3.5h223c2.32,0,3.5,1.09,3.5,3.25s-1.18,3.25-3.5,3.25h-220v149.5Zm34-559.07L738.16,452a3.59,3.59,0,0,1-3.5,2,3.21,3.21,0,0,1-3-2l-133.5-312.5a1.45,1.45,0,0,1-.5-1q0-3.5,3.5-3.5a3.21,3.21,0,0,1,3,2l130.5,305,131-305a3.21,3.21,0,0,1,3-2q3.5,0,3.5,3.5A1.45,1.45,0,0,1,871.66,139.47Zm-385.5,82.25q0-43.75-37-64.25-28.5-16-71-16H269.66v161h108.5q42,0,71-16.5Q486.17,265.47,486.16,221.72ZM98.5,662.58V890.5a12,12,0,0,0,12,12H396.32L304.67,662.58Zm0-534V645.73H297.7Z" transform="translate(-76 -76)"/><path class="cls-1" d="M908,924H92a16,16,0,0,1-16-16V92A16,16,0,0,1,92,76H908a16,16,0,0,1,16,16V908A16,16,0,0,1,908,924ZM92,84a8,8,0,0,0-8,8V908a8,8,0,0,0,8,8H908a8,8,0,0,0,8-8V92a8,8,0,0,0-8-8Z" transform="translate(-76 -76)"/></g></svg>